<svg xmlns="http://www.w3.org/2000/svg" xmlns:xlink="http://www.w3.org/1999/xlink" aria-hidden="true" role="img"
    class="iconify iconify--icon-park-outline" width="32" height="32" preserveAspectRatio="xMidYMid meet"
    viewBox="0 0 48 48">
    <g fill="none">
        <path
            d="M24 44a19.937 19.937 0 0 0 14.142-5.858A19.937 19.937 0 0 0 44 24a19.938 19.938 0 0 0-5.858-14.142A19.937 19.937 0 0 0 24 4A19.938 19.938 0 0 0 9.858 9.858A19.938 19.938 0 0 0 4 24a19.937 19.937 0 0 0 5.858 14.142A19.938 19.938 0 0 0 24 44z"
            stroke="currentColor" stroke-width="4" stroke-linejoin="round"></path>

        <path fill-rule="evenodd" clip-rule="evenodd" d="M24 37a2.5 2.5 0 1 0 0-5a2.5 2.5 0 0 0 0 5z"
            fill="currentColor"></path>
            
        <path d="M24 12v16" stroke="currentColor" stroke-width="4" stroke-linecap="round" stroke-linejoin="round">
        </path>
    </g>
</svg>
