<svg xmlns="http://www.w3.org/2000/svg" xmlns:xlink="http://www.w3.org/1999/xlink" aria-hidden="true" role="img"
    class="iconify iconify--uil" width="32" height="32" preserveAspectRatio="xMidYMid meet" viewBox="0 0 24 24">
    <path
        d="M21.71 9.29l-4-4a1 1 0 0 0-1.42 1.42L18.59 9H7a1 1 0 0 0 0 2h14a1 1 0 0 0 .92-.62a1 1 0 0 0-.21-1.09zM17 13H3a1 1 0 0 0-.92.62a1 1 0 0 0 .21 1.09l4 4a1 1 0 0 0 1.42 0a1 1 0 0 0 0-1.42L5.41 15H17a1 1 0 0 0 0-2z"
        fill="currentColor"></path>
</svg>