<svg xmlns="http://www.w3.org/2000/svg" xmlns:xlink="http://www.w3.org/1999/xlink" aria-hidden="true" role="img"
    class="iconify iconify--healthicons" width="32" height="32" preserveAspectRatio="xMidYMid meet" viewBox="0 0 48 48">
    <g fill="none">
        <path
            d="M32.707 22.707a1 1 0 0 0-1.414-1.414L24 28.586l-3.293-3.293a1 1 0 0 0-1.414 1.414L24 31.414l8.707-8.707z"
            fill="currentColor"></path>
        <path fill-rule="evenodd" clip-rule="evenodd"
            d="M38 15v21a3 3 0 0 1-3 3H17a3 3 0 0 1-3-3V8a3 3 0 0 1 3-3h11l10 10zm-10 1a1 1 0 0 1-1-1V7H17a1 1 0 0 0-1 1v28a1 1 0 0 0 1 1h18a1 1 0 0 0 1-1V16h-8zm1-7.172L34.172 14H29V8.828z"
            fill="currentColor"></path>
        <path d="M12 11v27a3 3 0 0 0 3 3h19v2H15a5 5 0 0 1-5-5V11h2z" fill="currentColor"></path>
    </g>
</svg>