<svg xmlns="http://www.w3.org/2000/svg" width="24px" height="24px" viewBox="0 0 16 16">
<!-- https://icon-sets.iconify.design/?query=expression pajamas--regular-expression.svg -->
    <path fill="currentColor" fill-rule="evenodd"
        d="M10.25 1.75a.75.75 0 0 0-1.5 0v3.451L5.761 3.475a.75.75 0 1 0-.75 1.3L8 6.5L5.011 8.225a.75.75 0 1 0 .75 1.3L8.75 7.799v3.451a.75.75 0 0 0 1.5 0V7.8l2.989 1.725a.75.75 0 1 0 .75-1.3L11 6.5l2.989-1.725a.75.75 0 1 0-.75-1.3L10.25 5.201zM3 15a2 2 0 1 0 0-4a2 2 0 0 0 0 4"
        clip-rule="evenodd" />
</svg>