<svg id="ideas" xmlns="http://www.w3.org/2000/svg" viewBox="0 0 24 24">
  <defs>
    <style>
      .cls-1{fill:none;stroke:#000;stroke-miterlimit:10;stroke-width:1.39px}
    </style>
  </defs>
  <path fill="#ccc" d="M0 0h24v24H0z"/>
  <path class="cls-1" d="m21.5 10-3 2.8c-.4.5-1.1.5-1.6 0L14 10c-.4-.5.1-1.4.8-1.4H16V7.4c0-1.4-1-2.5-2.4-2.5H10C8.6 5 7.5 6 7.5 7.4c0 .4-.4.7-.8.7H5.6c-.6 0-1.1-.4-1.1-1v-.7c0-2.3 1.9-4.2 4.2-4.2h6.6c2.3 0 4.2 1.9 4.2 4.2v2.2h1.2c.7 0 1.3.9.8 1.4Z"/>
  <path class="cls-1" d="m2.5 14 3-2.8c.4-.5 1.1-.5 1.6 0l3 2.8c.4.5-.1 1.4-.8 1.4H8v1.2c0 1.4 1 2.5 2.4 2.5H14c1.3 0 2.4-1.1 2.4-2.5 0-.4.4-.8.8-.8h1.1c.6 0 1.1.5 1.1 1.2v.6c0 2.3-1.9 4.2-4.2 4.2H8.7c-2.3 0-4.2-1.9-4.2-4.2v-2.2H3.3c-.7 0-1.3-.9-.8-1.4Z"/>
</svg>
