<svg id="ideas" xmlns="http://www.w3.org/2000/svg" viewBox="0 0 24 24">
  <defs>
    <style>
      .cls-1{fill:none;stroke:#000;stroke-miterlimit:10;stroke-width:1.39px}
    </style>
  </defs>
  <path fill="#ccc" d="M0 0h24v24H0z"/>
  <path class="cls-1" d="m21.46 10.03-2.95 2.82c-.45.42-1.13.42-1.57 0l-2.95-2.82c-.39-.62.04-1.43.75-1.43h1.3V7.36a2.42 2.42 0 0 0-2.42-2.42h-3.7A2.42 2.42 0 0 0 7.5 7.36a.8.8 0 0 1-.79.79H5.58a1.1 1.1 0 0 1-1.1-1.1v-.63a4.26 4.26 0 0 1 4.26-4.26h6.52a4.26 4.26 0 0 1 4.26 4.26V8.6h1.2c.71 0 1.13.82.75 1.43Z"/>
  <path class="cls-1" d="m2.54 13.97 2.95-2.82a1.14 1.14 0 0 1 1.57 0l2.95 2.82c.39.62-.04 1.43-.75 1.43h-1.3v1.24a2.42 2.42 0 0 0 2.42 2.42h3.7a2.42 2.42 0 0 0 2.42-2.42.8.8 0 0 1 .79-.79h1.13c.61 0 1.1.49 1.1 1.1v.63a4.26 4.26 0 0 1-4.26 4.26H8.74a4.26 4.26 0 0 1-4.26-4.26V15.4h-1.2c-.71 0-1.13-.82-.75-1.43Z"/>
</svg>
