<svg id="ie" xmlns="http://www.w3.org/2000/svg" viewBox="0 0 24 24">
  <defs>
    <style>
      .cls-1{fill:none;stroke:#000;stroke-miterlimit:10;stroke-width:.75px}
    </style>
  </defs>
  <path fill="#ccc" d="M0 0h24v24H0z"/>
  <g id="simplified">
    <path class="cls-1" d="M22 7.5c2.2-5-1-5.8-4.3-4.7-.4 0-1.3.4-.7.8a10 10 0 0 1 6.2 9.7c-4.7.4-9.9 0-14.7.1-.3 0-.6.1-.5.4.7 4 5.9 5.7 8.8 3 .2-.2.4-.4.7-.4h4.8c.1 0 .2 0 .1.2C19.1 24.8 6.9 24.5 4 16c-.5-1-1 1-1.2 1.3-.6 1.4-1 3-.3 4.5 1.2 1.6 3 .6 5.6-.1-5.5 2.6-8.1 1-7-3.7C2 13.8 6 8.6 9.8 6c1.4-.9.7-.7-.3-.5-2 .4-3.6 1.5-5 2.9 1.8-3.7 5.7-5.7 9.7-5.5 2.4-1.4 7.7-3.6 8.6.5 0 .4.3 2.5-.7 4.1Z"/>
    <path class="cls-1" d="M13.3 11.8h4.9c.2 0 .4-.2.3-.5-1.2-5.2-9.1-5.2-10.4 0-.1.3 0 .4.3.4h4.9Z"/>
  </g>
</svg>
