<svg xmlns="http://www.w3.org/2000/svg" viewBox="0 0 24 24">
  <defs>
    <style>
      .cls-1{fill:none;stroke:#000;stroke-miterlimit:10}
    </style>
  </defs>
  <path fill="#e6e6e6" d="M0 0h24v24H0z" id="renders"/>
  <g id="prototyping">
    <path class="cls-1" d="M13.57 13.12a.16.16 0 0 0 0 .24l1.98 1.95a.98.98 0 0 1 0 1.4 1 1 0 0 1-.68.29s-1.79.2-4.05.2-3.45-.08-3.45-.08c-.55 0-1-.44-1.01-.99s-.11-1.96-.11-3.78.11-3.75.11-3.75c0-.54.42-.99.97-.99.27 0 .53.1.71.29l2.25 2.22c.08.08.22.08.31 0l4.36-4.36c.4-.41 1.05-.41 1.46-.01l1.52 1.52c.41.41.41 1.07 0 1.48l-4.36 4.37Z"/>
    <path class="cls-1" d="M19.36 21.66s-3.87.18-7.3.18-7.3-.18-7.3-.18a2.25 2.25 0 0 1-2.25-2.25s-.35-2.65-.35-7.41c0-4.4.16-5.64.35-7.41.13-1.24 1.01-2.25 2.25-2.25 0 0 3.9-.18 7.3-.18s7.3.18 7.3.18a2.25 2.25 0 0 1 2.25 2.25s.24 3.69.24 7.41-.24 7.41-.24 7.41a2.25 2.25 0 0 1-2.25 2.25Z"/>
  </g>
</svg>
