<svg xmlns="http://www.w3.org/2000/svg" viewBox="0 0 24 24">
  <defs>
    <style>
      .cls-1{fill:none;stroke:#000;stroke-miterlimit:10}
    </style>
  </defs>
  <path fill="#e6e6e6" d="M0 0h24v24H0z" id="renders"/>
  <g id="prototyping">
    <path class="cls-1" d="m19.61 10.71-2.4 2.24c-.32.4-.88.4-1.28 0l-2.32-2.24c-.32-.4.08-1.12.64-1.12h.96v-.96c0-1.12-.8-2-1.92-2H10.4c-1.12.08-2 .88-2 2 0 .32-.32.56-.64.56h-.88c-.48 0-.88-.32-.88-.8v-.56a3.4 3.4 0 0 1 3.37-3.37h5.29a3.4 3.4 0 0 1 3.37 3.37v1.76h.96c.56 0 1.04.72.64 1.12Z"/>
    <path class="cls-1" d="m4.39 13.29 2.4-2.24c.32-.4.88-.4 1.28 0l2.4 2.24c.32.4-.08 1.12-.64 1.12H8.79v.96c0 1.12.8 2 1.92 2h2.89c1.04 0 1.92-.88 1.92-2 0-.32.32-.64.64-.64h.88c.48 0 .88.4.88.96v.48a3.4 3.4 0 0 1-3.37 3.37H9.34a3.4 3.4 0 0 1-3.37-3.37v-1.76h-.96c-.56 0-1.04-.72-.64-1.12Z"/>
    <path class="cls-1" d="M19.36 21.66s-3.87.18-7.3.18-7.3-.18-7.3-.18a2.25 2.25 0 0 1-2.25-2.25s-.35-2.65-.35-7.41c0-4.4.16-5.64.35-7.41.13-1.24 1.01-2.25 2.25-2.25 0 0 3.9-.18 7.3-.18s7.3.18 7.3.18a2.25 2.25 0 0 1 2.25 2.25s.24 3.69.24 7.41-.24 7.41-.24 7.41a2.25 2.25 0 0 1-2.25 2.25Z"/>
  </g>
</svg>
