<svg xmlns="http://www.w3.org/2000/svg" viewBox="0 0 24 24">
  <defs>
    <style>
      .cls-1{fill:none;stroke:#000;stroke-miterlimit:10}
    </style>
  </defs>
  <path fill="#e6e6e6" d="M0 0h24v24H0z" id="renders"/>
  <g id="prototyping">
    <path class="cls-1" d="m21.46 10.4-2.99 2.79c-.4.5-1.1.5-1.59 0l-2.89-2.79c-.4-.5.1-1.39.8-1.39h1.2v-1.2c0-1.39-1-2.49-2.39-2.49h-3.59c-1.39.1-2.49 1.1-2.49 2.49 0 .4-.4.7-.8.7h-1.1c-.6 0-1.1-.4-1.1-1v-.7A4.2 4.2 0 0 1 8.7 2.63h6.58a4.2 4.2 0 0 1 4.18 4.18V9h1.2c.7 0 1.3.9.8 1.39Z"/>
    <path class="cls-1" d="m2.54 13.6 2.99-2.79c.4-.5 1.1-.5 1.59 0l2.99 2.79c.4.5-.1 1.39-.8 1.39h-1.3v1.2c0 1.39 1 2.49 2.39 2.49h3.59c1.3 0 2.39-1.1 2.39-2.49 0-.4.4-.8.8-.8h1.1c.6 0 1.1.5 1.1 1.2v.6a4.2 4.2 0 0 1-4.18 4.18H8.72a4.2 4.2 0 0 1-4.18-4.18V15h-1.2c-.7 0-1.3-.9-.8-1.39Z"/>
  </g>
</svg>
